<svg id="visa-electron-seeklogo.com" xmlns="http://www.w3.org/2000/svg" width="256" height="113.957"
     viewBox="0 0 256 113.957">
    <path id="Tracé_7" data-name="Tracé 7"
          d="M97.2,1.46,63.681,81.418H41.814L25.319,17.6c-1-3.921-1.868-5.365-4.912-7.022C15.434,7.88,7.22,5.353,0,3.781L.487,1.46h35.2A9.646,9.646,0,0,1,45.23,9.608l8.716,46.273L75.462,1.46Zm29.562,0-17.1,79.958H88.966l17.1-79.958Zm56.115,53.853c.086-21.1-29.174-22.269-28.983-31.7.07-2.865,2.8-5.917,8.776-6.7a39.066,39.066,0,0,1,20.4,3.58l3.624-16.965A55.772,55.772,0,0,0,167.342,0c-20.45,0-34.835,10.862-34.95,26.428-.134,11.514,10.275,17.931,18.1,21.766,8.063,3.916,10.767,6.434,10.729,9.933-.057,5.365-6.438,7.74-12.372,7.828-10.4.165-16.435-2.811-21.246-5.052L123.851,78.43c4.84,2.218,13.76,4.145,23,4.243,21.74,0,35.959-10.738,36.023-27.361Zm54,26.106H256L239.29,1.46H221.643a9.412,9.412,0,0,0-8.809,5.862l-31.04,74.1h21.723l4.309-11.944h26.54ZM213.782,53.089l10.893-30.027,6.257,30.027Zm-60.55,50.338h-8.4v7.823h9.4V113.6H141.995V91.9h11.752v2.352h-8.92v6.857h8.4Zm5.34-12.686H161.4V113.6h-2.832Zm9.978,15.583c.064,3.833,2.48,5.411,5.344,5.411a10.161,10.161,0,0,0,4.317-.805l.514,2.029a12.726,12.726,0,0,1-5.217,1c-4.8,0-7.661-3.187-7.661-7.889s2.767-8.372,7.308-8.372c5.119,0,6.44,4.445,6.44,7.31a6.828,6.828,0,0,1-.1,1.319Zm8.307-2.028c.033-1.771-.74-4.572-3.928-4.572-2.9,0-4.122,2.608-4.348,4.572Zm18.154,8.758a10.934,10.934,0,0,1-4.475.9c-4.7,0-7.759-3.188-7.759-7.954a7.942,7.942,0,0,1,8.37-8.307,8.9,8.9,0,0,1,3.928.837l-.642,2.157a6.958,6.958,0,0,0-3.286-.742c-3.575,0-5.505,2.673-5.505,5.895,0,3.6,2.318,5.827,5.409,5.827a8.1,8.1,0,0,0,3.477-.741Zm7.948-18.772v3.735h4.056v2.156h-4.056v8.405c0,1.934.548,3.027,2.125,3.027a5.231,5.231,0,0,0,1.643-.194l.129,2.159a7.737,7.737,0,0,1-2.512.386,4.043,4.043,0,0,1-3.059-1.19,6.09,6.09,0,0,1-1.1-4.09v-8.5h-2.416V98.017h2.416v-2.9Zm8.013,8.6c0-1.836-.034-3.413-.129-4.863h2.48l.129,3.091h.1a4.714,4.714,0,0,1,4.346-3.413,6,6,0,0,1,.775.064v2.674a4.318,4.318,0,0,0-.968-.066c-1.994,0-3.413,1.481-3.8,3.608a8.511,8.511,0,0,0-.1,1.321V113.6h-2.833Zm25.111,2.8c0,5.763-4.026,8.275-7.761,8.275-4.186,0-7.468-3.092-7.468-8.017,0-5.185,3.444-8.243,7.727-8.243C233.056,97.7,236.083,100.947,236.083,105.681Zm-12.333.161c0,3.413,1.932,5.989,4.7,5.989,2.706,0,4.733-2.545,4.733-6.054,0-2.64-1.32-5.958-4.669-5.958C225.2,99.819,223.75,102.912,223.75,105.842Zm16.675-3.607c0-1.641-.034-2.929-.129-4.217h2.511l.161,2.576h.064a5.77,5.77,0,0,1,5.152-2.9c2.156,0,5.506,1.288,5.506,6.632V113.6h-2.833v-8.984c0-2.511-.934-4.6-3.606-4.6a4.086,4.086,0,0,0-3.8,2.9,4.019,4.019,0,0,0-.194,1.321v9.37h-2.833Z"
          fill="#fff"/>
</svg>
