<svg xmlns="http://www.w3.org/2000/svg" width="61.8" height="19.9" viewBox="0 0 61.8 19.9">
    <path id="Tracé_6" data-name="Tracé 6"
          d="M99.4,98.4l-8.1,19.3H86l-4-15.4a2.2,2.2,0,0,0-1.2-1.7A20.132,20.132,0,0,0,75.9,99l.1-.6h8.5a2.262,2.262,0,0,1,2.3,2l2.1,11.2,5.2-13.1h5.3Zm20.7,13c0-5.1-7-5.4-7-7.6,0-.7.7-1.4,2.1-1.6a8.7,8.7,0,0,1,4.9.9L121,99a13.98,13.98,0,0,0-4.7-.9c-4.9,0-8.4,2.6-8.4,6.4,0,2.8,2.5,4.3,4.4,5.2s2.6,1.5,2.6,2.4c0,1.3-1.5,1.9-3,1.9a11.133,11.133,0,0,1-5.1-1.2l-.9,4.2a15.434,15.434,0,0,0,5.5,1c5.2,0,8.6-2.6,8.7-6.6m13,6.3h4.6l-4-19.3h-4.3a2.209,2.209,0,0,0-2.1,1.4l-7.5,17.9H125l1-2.9h6.4Zm-5.6-6.8,2.6-7.2,1.5,7.2Zm-21-12.5-4.1,19.3h-5l4.1-19.3h5Z"
          transform="translate(-75.9 -98.1)" fill="#1a1f71"/>
</svg>
