<svg id="Mastercard-logo" xmlns="http://www.w3.org/2000/svg" width="999.2" height="618" viewBox="0 0 999.2 618">
    <g id="Groupe_1" data-name="Groupe 1">
        <rect id="rect19" width="270.4" height="485.8" transform="translate(364 66.1)" fill="#ff5a00"/>
        <path id="XMLID_330_" d="M382,309c0-98.7,46.4-186.3,117.6-242.9A307.343,307.343,0,0,0,309,0C138.2,0,0,138.2,0,309S138.2,618,309,618a307.343,307.343,0,0,0,190.6-66.1C428.3,496.1,382,407.7,382,309Z" fill="#eb001b"/>
        <path id="path22" d="M999.2,309c0,170.8-138.2,309-309,309a307.343,307.343,0,0,1-190.6-66.1C571.7,495.2,617.2,407.7,617.2,309S570.8,122.7,499.6,66.1A306.845,306.845,0,0,1,690.1,0C861,0,999.2,139.1,999.2,309Z" fill="#f79e1b"/>
    </g>
</svg>
