<svg id="Mastercard-logo" xmlns="http://www.w3.org/2000/svg" width="999.2" height="776" viewBox="0 0 999.2 776">
    <path id="XMLID_1775_"
          d="M181.1,774.3V722.8c0-19.7-12-32.6-32.6-32.6-10.3,0-21.5,3.4-29.2,14.6-6-9.4-14.6-14.6-27.5-14.6-8.6,0-17.2,2.6-24,12V691.9h-18v82.4h18V728.8c0-14.6,7.7-21.5,19.7-21.5s18,7.7,18,21.5v45.5h18V728.8c0-14.6,8.6-21.5,19.7-21.5,12,0,18,7.7,18,21.5v45.5h19.9Zm267-82.4H418.9V667h-18v24.9H384.6v16.3h16.3V746c0,18.9,7.7,30,28.3,30a48.393,48.393,0,0,0,22.3-6l-5.2-15.5a28.793,28.793,0,0,1-15.5,4.3c-8.6,0-12-5.2-12-13.7V708.2H448V691.9Zm152.8-1.8c-10.3,0-17.2,5.2-21.5,12V691.8h-18v82.4h18V727.8c0-13.7,6-21.5,17.2-21.5a55.264,55.264,0,0,1,11.2,1.7l5.2-17.2a71.36,71.36,0,0,0-12.1-.7ZM370,698.7c-8.6-6-20.6-8.6-33.5-8.6-20.6,0-34.3,10.3-34.3,26.6,0,13.7,10.3,21.5,28.3,24l8.6.9c9.4,1.7,14.6,4.3,14.6,8.6,0,6-6.9,10.3-18.9,10.3a47.452,47.452,0,0,1-27.5-8.6l-8.6,13.7c9.4,6.9,22.3,10.3,35.2,10.3,24,0,37.8-11.2,37.8-26.6,0-14.6-11.2-22.3-28.3-24.9l-8.6-.9c-7.7-.9-13.7-2.6-13.7-7.7,0-6,6-9.4,15.5-9.4,10.3,0,20.6,4.3,25.8,6.9l7.6-14.6Zm478.9-8.6c-10.3,0-17.2,5.2-21.5,12V691.8h-18v82.4h18V727.8c0-13.7,6-21.5,17.2-21.5a55.264,55.264,0,0,1,11.2,1.7l5.2-17c-3.5-.9-8.6-.9-12.1-.9Zm-230,43c0,24.9,17.2,42.9,43.8,42.9,12,0,20.6-2.6,29.2-9.4L683.3,752c-6.9,5.2-13.7,7.7-21.5,7.7-14.6,0-24.9-10.3-24.9-26.6,0-15.5,10.3-25.8,24.9-26.6,7.7,0,14.6,2.6,21.5,7.7l8.6-14.6c-8.6-6.9-17.2-9.4-29.2-9.4-26.6-.1-43.8,18-43.8,42.9Zm166.5,0V691.9h-18v10.3c-6-7.7-14.6-12-25.8-12-23.2,0-41.2,18-41.2,42.9s18,42.9,41.2,42.9c12,0,20.6-4.3,25.8-12v10.3h18V733.1Zm-66.1,0c0-14.6,9.4-26.6,24.9-26.6,14.6,0,24.9,11.2,24.9,26.6,0,14.6-10.3,26.6-24.9,26.6-15.4-.9-24.9-12.1-24.9-26.6Zm-215.4-43c-24,0-41.2,17.2-41.2,42.9,0,25.8,17.2,42.9,42.1,42.9,12,0,24-3.4,33.5-11.2l-8.6-12.9c-6.9,5.2-15.5,8.6-24,8.6-11.2,0-22.3-5.2-24.9-19.7h60.9v-6.9c.8-26.5-14.7-43.7-37.8-43.7Zm0,15.5c11.2,0,18.9,6.9,20.6,19.7H481.6c1.7-11.1,9.4-19.7,22.3-19.7Zm447.2,27.5V659.3h-18v42.9c-6-7.7-14.6-12-25.8-12-23.2,0-41.2,18-41.2,42.9s18,42.9,41.2,42.9c12,0,20.6-4.3,25.8-12v10.3h18V733.1Zm-66.1,0c0-14.6,9.4-26.6,24.9-26.6,14.6,0,24.9,11.2,24.9,26.6,0,14.6-10.3,26.6-24.9,26.6-15.5-.9-24.9-12.1-24.9-26.6Zm-602.6,0V691.9h-18v10.3c-6-7.7-14.6-12-25.8-12-23.2,0-41.2,18-41.2,42.9s18,42.9,41.2,42.9c12,0,20.6-4.3,25.8-12v10.3h18V733.1Zm-66.9,0c0-14.6,9.4-26.6,24.9-26.6,14.6,0,24.9,11.2,24.9,26.6,0,14.6-10.3,26.6-24.9,26.6C224.9,758.8,215.5,747.6,215.5,733.1Z"/>
    <g id="Groupe_1" data-name="Groupe 1">
        <rect id="rect19" width="270.4" height="485.8" transform="translate(364 66.1)" fill="#ff5a00"/>
        <path id="XMLID_330_"
              d="M382,309c0-98.7,46.4-186.3,117.6-242.9A307.343,307.343,0,0,0,309,0C138.2,0,0,138.2,0,309S138.2,618,309,618a307.343,307.343,0,0,0,190.6-66.1C428.3,496.1,382,407.7,382,309Z"
              fill="#eb001b"/>
        <path id="path22"
              d="M999.2,309c0,170.8-138.2,309-309,309a307.343,307.343,0,0,1-190.6-66.1C571.7,495.2,617.2,407.7,617.2,309S570.8,122.7,499.6,66.1A306.845,306.845,0,0,1,690.1,0C861,0,999.2,139.1,999.2,309Z"
              fill="#f79e1b"/>
    </g>
</svg>
